inDegrees=yes
name=ik_tiny_file
DataType=double
version=3
OpenSimVersion=4.4-2022-07-23-0e9fedc
endheader
time	pelvis_tilt	pelvis_list	pelvis_rotation	pelvis_tx	pelvis_ty	pelvis_tz	hip_flexion_r	hip_adduction_r	hip_rotation_r	knee_angle_r	knee_angle_r_beta	ankle_angle_r	subtalar_angle_r	mtp_angle_r	hip_flexion_l	hip_adduction_l	hip_rotation_l	knee_angle_l	knee_angle_l_beta	ankle_angle_l	subtalar_angle_l	mtp_angle_l	lumbar_extension	lumbar_bending	lumbar_rotation	arm_flex_r	arm_add_r	arm_rot_r	elbow_flex_r	pro_sup_r	wrist_flex_r	wrist_dev_r	arm_flex_l	arm_add_l	arm_rot_l	elbow_flex_l	pro_sup_l	wrist_flex_l	wrist_dev_l
3.04	10.0524699766223	-1.151331341993943	0.7033979173737781	0	0.9399999999999999	0	44.03970402805583	-10.04590279998571	0	60.36250684966397	1.053524489284266	-4.99001526275973	0	0	44.03970402805583	-10.04590279998571	0	60.36250684966397	1.053524489284266	-4.99001526275973	0	0	-9.907999805284231	0.7404748725672896	0.5478958320112891	3.776153259955819	-5.377920449069462	-6.422146385018505	15.43382636197538	44.97580154439044	0	5.00237846586742	2.873857784859696	0.09032515280783537	-0.5192184889904854	0.1965027717280046	44.97580154439044	0	5.00237846586742
3.06	9.997595004108845	-1.16540754016707	0.6034078770224807	0	0.9399999999999999	0	44.04654486087347	-10.0450959554464	0	60.35998964096631	1.053480555704532	-4.990105786099981	0	0	44.04654486087347	-10.0450959554464	0	60.35998964096631	1.053480555704532	-4.990105786099981	0	0	-9.815897543651158	0.745844922195653	0.5445818518632758	3.72946324686917	-5.513959384081735	-7.620674313627932	18.57230559577967	44.97616206251844	0	5.00231621693908	2.792911708589804	0.1139114854150624	-0.4120125431150013	0.2013073081426618	44.97616206251844	0	5.00231621693908
3.08	9.98721887297828	-1.175703418101908	0.5113202272447701	0	0.9399999999999999	0	44.05330448225394	-10.04430151805784	0	60.3575069189389	1.053437224030742	-4.990195180156289	0	0	44.05330448225394	-10.04430151805784	0	60.3575069189389	1.053437224030742	-4.990195180156289	0	0	-9.802980295357788	0.7294929983182868	0.5187701749524559	3.729910364101872	-5.098363991842006	-9.338341308722852	22.32243903347437	44.97651737851177	0	5.002255125496736	2.77372834515667	0.0681187190809099	-0.3797102714913023	0.2028015119612896	44.97651737851177	0	5.002255125496736
3.1	9.981225830931322	-1.197344793195505	0.4403248141362851	0	0.9399999999999999	0	44.05973643150104	-10.04355935820358	0	60.35513516016513	1.053395829031077	-4.990279932026088	0	0	44.05973643150104	-10.04355935820358	0	60.35513516016513	1.053395829031077	-4.990279932026088	0	0	-9.826049918626589	0.7411385060892504	0.4666909258233338	3.802924811597662	-4.792758275680787	-11.05546491199296	26.0448188087098	44.9768508053176	0	5.002198836282274	2.783092399294349	0.01927727518063984	-0.384767716456861	0.2033727315788413	44.9768508053176	0	5.002198836282274
3.12	9.949847072117855	-1.218691060092232	0.3650457880445284	0	0.9399999999999999	0	44.06622339420566	-10.0428218236467	0	60.35273855169647	1.053354000322417	-4.99036516890811	0	0	44.06622339420566	-10.0428218236467	0	60.35273855169647	1.053354000322417	-4.99036516890811	0	0	-9.793558145985598	0.7506101006865348	0.4764600402593995	3.947026145925178	-4.353451912953563	-12.44153269377686	29.79874819460774	44.97718338894438	0	5.002143552746928	2.76143118523211	0.01757058816068454	-0.4023833046346693	0.2045798287501069	44.97718338894438	0	5.002143552746928
3.14	9.910054630010046	-1.235312620568518	0.3134984202670438	0	0.9399999999999999	0	44.0727119318625	-10.04209764799747	0	60.3503368073443	1.053312081975681	-4.990450138241723	0	0	44.0727119318625	-10.04209764799747	0	60.3503368073443	1.053312081975681	-4.990450138241723	0	0	-9.748403711852175	0.7395138335371543	0.491606981446551	4.093678247083673	-4.73776820621062	-12.58993684654244	33.04603141029627	44.97751152313015	0	5.002090112399117	2.77232920819468	-0.08595477860518919	-0.4267318895630263	0.2080668212373289	44.97751152313015	0	5.002090112399117
3.16	9.880110918281682	-1.24676091054989	0.2734123774127368	0	0.9399999999999999	0	44.07927774697759	-10.04137892144225	0	60.34789461120294	1.053269457612034	-4.990535783738002	0	0	44.07927774697759	-10.04137892144225	0	60.34789461120294	1.053269457612034	-4.990535783738002	0	0	-9.764782170213213	0.7386703041239069	0.484348636449066	4.177375194762926	-4.729568262161506	-12.92501588327753	36.68690751087216	44.97783870579062	0	5.002037812053721	2.857378203290604	-0.1709701578184006	-0.4584633243707696	0.2069424727694293	44.97783870579062	0	5.002037812053721
3.18	9.86471520571158	-1.256316008035423	0.2431565971497243	0	0.9399999999999999	0	44.08569178860032	-10.04066757464746	0	60.34553396767198	1.053228256609953	-4.990619703077715	0	0	44.08569178860032	-10.04066757464746	0	60.34553396767198	1.053228256609953	-4.990619703077715	0	0	-9.689835736847307	0.7344871304742769	0.5473330249668111	4.248535176371917	-4.920785804506672	-13.31800139648218	40.22629194054112	44.97816164375377	0	5.001985679878474	2.78970234210128	-0.2126766671652033	-0.3914210019966853	0.2090722409306389	44.97816164375377	0	5.001985679878474
3.2	9.884534877960062	-1.270011415845752	0.2496836945349161	0	0.9399999999999999	0	44.09177125416091	-10.0400097035921	0	60.3432803762474	1.0531889240196	-4.990698848364974	0	0	44.09177125416091	-10.0400097035921	0	60.3432803762474	1.0531889240196	-4.990698848364974	0	0	-9.759188934847163	0.7574994566997603	0.5481332259406515	4.443500989203475	-5.104833213076931	-13.75032346166514	43.83184313802665	44.9784620589698	0	5.001938306397147	2.846748537772426	-0.2188167816348595	-0.3898703298956528	0.2135554458388918	44.9784620589698	0	5.001938306397147
3.22	9.906003863105617	-1.288231794766825	0.2651136643604193	0	0.9399999999999999	0	44.09813341237168	-10.03932472263997	0	60.34092575539378	1.053147828133068	-4.990781601134701	0	0	44.09813341237168	-10.03932472263997	0	60.34092575539378	1.053147828133068	-4.990781601134701	0	0	-9.758809878862996	0.7957844756544173	0.5495920860732492	4.495659391996048	-5.031015346214025	-14.36007569981593	47.93733491898733	44.97877528012398	0	5.001889204257602	2.829169133471546	-0.2113800046292372	-0.411735054490012	0.218492594717521	44.97877528012398	0	5.001889204257602
3.24	9.900776411280418	-1.289002765528219	0.2891954613772864	0	0.9399999999999999	0	44.10369592081963	-10.03873222740042	0	60.33886569880232	1.05311187336277	-4.990853804892405	0	0	44.10369592081963	-10.03873222740042	0	60.33886569880232	1.05311187336277	-4.990853804892405	0	0	-9.774471992746069	0.8128164881727672	0.5294060347476658	4.796598547211931	-5.309568954701482	-14.58096584954246	51.60588036446881	44.97904694131052	0	5.001847091053914	2.8897009265892	-0.2136519243536868	-0.4491311887046225	0.2211296406457442	44.97904694131052	0	5.001847091053914
3.26	9.921476453629026	-1.282722931287945	0.3173076887544879	0	0.9399999999999999	0	44.10910463391671	-10.03815890613661	0	60.33686641178348	1.053076979221598	-4.990923957873529	0	0	44.10910463391671	-10.03815890613661	0	60.33686641178348	1.053076979221598	-4.990923957873529	0	0	-9.785284661966555	0.8350731273011223	0.5672713070506527	5.067773423857963	-5.486678024440582	-14.82591277769753	55.24839553918821	44.97931017326092	0	5.001806535634155	2.903902346023711	-0.2166072982941129	-0.4383339554320175	0.2201356239695394	44.97931017326092	0	5.001806535634155
3.28	9.906015302614984	-1.277722019873451	0.345545470972283	0	0.9399999999999999	0	44.11471609219038	-10.0375657635376	0	60.33479914570093	1.053040898621943	-4.990996721567557	0	0	44.11471609219038	-10.0375657635376	0	60.33479914570093	1.053040898621943	-4.990996721567557	0	0	-9.72653274283914	0.8565659342008158	0.6158091602627146	5.256764306986311	-5.457287542411944	-14.81615054353082	59.06684940059669	44.97958277622824	0	5.001764743994157	2.820055234559734	-0.1629825970087818	-0.3969525928553628	0.2196087106520564	44.97958277622824	0	5.001764743994157
3.3	9.924699671916429	-1.282404171578821	0.3846128257780738	0	0.9399999999999999	0	44.12010798161557	-10.03699693012036	0	60.33281837145802	1.053006327589666	-4.991066623753025	0	0	44.12010798161557	-10.03699693012036	0	60.33281837145802	1.053006327589666	-4.991066623753025	0	0	-9.720133523200591	0.8770222275460638	0.6464423850457154	5.557885563483259	-5.565846010043009	-14.59719116848948	62.83002940398637	44.97984437743309	0	5.001724766561457	2.758438245426152	-0.1613368316447543	-0.386407592057765	0.2247983579101109	44.97984437743309	0	5.001724766561457
3.32	10.01798987300882	-1.294678132715795	0.4259624721294209	0	0.9399999999999999	0	44.12055585609275	-10.03693108798484	0	60.33268559830012	1.053004010260902	-4.99107292807544	0	0	44.12055585609275	-10.03693108798484	0	60.33268559830012	1.053004010260902	-4.99107292807544	0	0	-9.822391571398308	0.897731607862726	0.675248119714902	5.974181837127399	-5.871493199793714	-14.14956274513683	66.29486515271701	44.97987274930202	0	5.001719325007071	2.755368570718162	-0.1523678207077152	-0.5206001099126364	0.2227649909000515	44.97987274930202	0	5.001719325007071
3.34	10.11773929464073	-1.310463561866737	0.4662757767130542	0	0.9399999999999999	0	44.12100038631063	-10.03686583177682	0	60.33255378338869	1.053001709656694	-4.991079183795839	0	0	44.12100038631063	-10.03686583177682	0	60.33255378338869	1.053001709656694	-4.991079183795839	0	0	-9.941522950694331	0.9299545490239799	0.7097174821240575	6.347949209987857	-6.15207059489073	-13.58242753168213	69.80948277159403	44.97990088000787	0	5.001713939666715	2.762827715569578	-0.1273687476190787	-0.5813100151425408	0.2150727023033988	44.97990088000787	0	5.001713939666715
3.36	10.23007504368775	-1.333507068466858	0.5123986451487654	0	0.9399999999999999	0	44.12137050634605	-10.03681160354106	0	60.33244395266534	1.052999792748952	-4.99108439032699	0	0	44.12137050634605	-10.03681160354106	0	60.33244395266534	1.052999792748952	-4.99108439032699	0	0	-10.10266876689435	0.981163458150873	0.736045737466519	6.947719678431567	-6.568249529933398	-13.12121525211602	73.06457169847157	44.97992426782785	0	5.00170947137891	2.809270855479268	-0.09589095006633201	-0.6213159814655983	0.2077206537254361	44.97992426782785	0	5.00170947137891
3.38	10.31047752098589	-1.353164924008001	0.5654552916794064	0	0.9399999999999999	0	44.12184094112657	-10.03674266467222	0	60.33230449333744	1.052997358724508	-4.991091009263161	0	0	44.12184094112657	-10.03674266467222	0	60.33230449333744	1.052997358724508	-4.991091009263161	0	0	-10.20837418599275	1.034589583234108	0.7378551964623749	7.749638728250748	-7.185592749281516	-12.7723355970263	75.78833844983372	44.97995400321984	0	5.00170379509729	2.79347277452071	-0.05493641942375799	-0.6168710844990597	0.2045737849109726	44.97995400321984	0	5.00170379509729
3.4	10.42427804462426	-1.382043528426935	0.6235365742511418	0	0.9399999999999999	0	44.12238109761815	-10.03666358526712	0	60.33214440152202	1.052994564595223	-4.991098608422975	0	0	44.12238109761815	-10.03666358526712	0	60.33214440152202	1.052994564595223	-4.991098608422975	0	0	-10.31397487839886	1.076825251231877	0.7427202961903311	8.38501961556554	-7.664177349396676	-12.33104548345217	78.52299831011237	44.97998812394029	0	5.00169729262511	2.729573302844944	-0.02481511649169046	-0.5949090452789519	0.2000452068447368	44.97998812394029	0	5.00169729262511
3.42	10.53567225972195	-1.399450615472013	0.6591823588849216	0	0.9399999999999999	0	44.12283014977148	-10.03659797092589	0	60.33201124047561	1.052992240496528	-4.991104923613857	0	0	44.12283014977148	-10.03659797092589	0	60.33201124047561	1.052992240496528	-4.991104923613857	0	0	-10.42751030315589	1.088211184247884	0.7526319991249584	9.220102618696059	-8.203718271877612	-11.98205260298726	80.78959182210409	44.98001644924413	0	5.00169190682784	2.680726635595809	-0.02321468807612015	-0.6210868030482816	0.201439603784172	44.98001644924413	0	5.00169190682784
3.44	10.64076345359163	-1.414507387619302	0.7014270044577691	0	0.9399999999999999	0	44.12324306964755	-10.03653772735454	0	60.33188875066811	1.052990102646087	-4.991110729090068	0	0	44.12324306964755	-10.03653772735454	0	60.33188875066811	1.052990102646087	-4.991110729090068	0	0	-10.54345887552038	1.103016105716309	0.7800474780851636	9.999319655079674	-8.816814073323915	-11.67435531534872	82.78101343302421	44.98004246660749	0	5.001686968943208	2.6545212717822	-0.0007740927313760002	-0.6207356701966906	0.198010493708891	44.98004246660749	0	5.001686968943208
